<?xml version="1.0" encoding="utf-8"?>
<!-- Generator: Adobe Illustrator 27.8.1, SVG Export Plug-In . SVG Version: 6.00 Build 0)  -->
<svg version="1.1" id="Camada_1" xmlns="http://www.w3.org/2000/svg" xmlns:xlink="http://www.w3.org/1999/xlink" x="0px" y="0px"
	 viewBox="0 0 1920 1080" style="enable-background:new 0 0 1920 1080;" xml:space="preserve">
<style type="text/css">
	.st0{fill:#5D9D9A;}
</style>
<g>
	<g>
		<path d="M891.75,715.38c-8.61,0-16.1-1.29-22.47-3.93c-6.37-2.6-11.05-6.82-14.04-12.64c-3-5.79-4.49-13.37-4.49-22.75v-27.19
			h-65.73v27.19c0,9.38-1.59,16.97-4.78,22.75c-3.18,5.82-7.86,10.04-14.04,12.64c-6.18,2.64-13.76,3.93-22.75,3.93h-11.8V721h171.9
			v-5.62H891.75z M980.51,319.9H656.37l-3.93,101.12h5.62l1.69-20.22c1.12-18.73,4.4-33.59,9.83-44.66
			c5.43-11.03,14.04-18.89,25.84-23.59c11.8-4.66,27.25-7.02,46.35-7.02h43.26v246.67h65.73V325.52h43.82
			c19.47,0,35.02,2.36,46.63,7.02c11.61,4.7,20.22,12.56,25.84,23.59c5.62,11.07,8.99,25.93,10.11,44.66l1.12,20.22h5.62
			L980.51,319.9z"/>
	</g>
	<g>
		<path d="M1228.68,652.73c-0.82-1.31-1.67-2.58-2.57-3.86h-106.79c10.9,5.41,20.37,10.64,28.46,15.65
			c13.86,8.61,24.16,18.26,30.9,28.93c6.74,10.67,10.11,24.62,10.11,41.85c0,26.22-7.4,46.06-22.19,59.55s-33.99,20.22-57.58,20.22
			c-17.23,0-31.74-3.93-43.54-11.8c-11.8-7.86-20.69-20.22-26.68-37.08s-9.18-38.95-9.55-66.29c-8.99,0-17.04,1.59-24.16,4.77
			c-7.12,3.18-12.64,7.86-16.57,14.04c-3.93,6.18-5.9,14.14-5.9,23.88c0,10.49,2.53,20.5,7.58,30.05c5.06,9.55,12.64,17.88,22.75,25
			c10.11,7.12,22.75,12.73,37.92,16.85c15.17,4.12,32.49,6.18,51.96,6.18c29.59,0,54.77-4.68,75.56-14.04s36.61-22.56,47.47-39.6
			c10.86-17.04,16.29-37.17,16.29-60.39C1242.17,684.93,1237.67,666.96,1228.68,652.73z M1212.67,440.94
			c-9.18-9.74-21.91-17.6-38.2-23.59c-16.29-5.99-35.86-8.99-58.7-8.99c-25.47,0-47.66,4.12-66.57,12.36
			c-18.91,8.24-33.43,20.22-43.54,35.95c-10.11,15.73-15.17,35.02-15.17,57.86c0,16.85,2.72,31.74,8.15,44.66
			c1.91,4.55,4.08,8.88,6.55,13h98.5c-7.83-4.14-14.85-8.09-21.07-11.87c-13.86-8.43-24.16-18.26-30.9-29.49
			c-6.74-11.24-10.11-25.47-10.11-42.69c0-17.23,3-31.18,8.99-41.85c5.99-10.67,14.33-18.63,25-23.88
			c10.67-5.24,22.38-7.86,35.11-7.86c23.22,0,39.79,7.96,49.72,23.88s14.89,40.17,14.89,72.75c15.73,0,28.18-3.46,37.36-10.39
			c9.18-6.93,13.76-16.2,13.76-27.81C1226.44,461.35,1221.85,450.68,1212.67,440.94z"/>
	</g>
	<g>
		<g>
			<path class="st0" d="M853.09,590.24c0.34,0.08,0.6,0.28,0.78,0.59c0.18,0.31,0.23,0.64,0.15,0.98c-0.08,0.34-0.27,0.61-0.56,0.81
				c-1.17,0.69-2.41,1.22-3.7,1.59c-1.29,0.38-2.51,0.64-3.65,0.78c-1.14,0.15-2.47,0.13-3.99-0.05c-1.52-0.18-2.81-0.37-3.87-0.59
				c-1.06-0.21-2.47-0.59-4.21-1.13c-1.75-0.54-3.11-0.99-4.09-1.35c-0.98-0.36-2.42-0.9-4.31-1.62c-3.92-1.47-6.9-2.53-8.96-3.18
				c-0.52-0.16-1.02-0.11-1.49,0.15c-0.47,0.26-0.78,0.65-0.91,1.17c-5.38,20.33-10.2,35.83-14.44,46.51
				c-0.13,0.33-0.36,0.56-0.68,0.71c-0.33,0.15-0.65,0.16-0.98,0.02c-0.33-0.13-0.56-0.36-0.69-0.69c-0.13-0.33-0.13-0.65,0-0.98
				c4.18-10.58,8.96-26,14.34-46.26c0.13-0.52,0.05-1.01-0.24-1.47c-0.29-0.46-0.7-0.73-1.22-0.83c-7.34-1.79-14.57-1.44-21.69,1.08
				c-1.96,0.72-3.58,1.61-4.87,2.67c-1.29,1.06-2.21,2.09-2.77,3.08c-0.55,0.99-0.92,2.06-1.1,3.21c-0.18,1.14-0.24,2.05-0.17,2.72
				c0.07,0.67,0.18,1.31,0.34,1.93c0.59,2.19,1.66,3.97,3.21,5.34c1.55,1.37,3.11,1.93,4.67,1.67c0.52-0.1,0.95,0.05,1.27,0.44
				c0.33,0.39,0.39,0.82,0.2,1.3c-0.2,0.47-0.54,0.74-1.03,0.81c-0.36,0.07-0.73,0.1-1.13,0.1c-2.09,0-4.05-0.85-5.9-2.55
				c-1.84-1.7-3.11-3.85-3.79-6.46c-0.23-1.17-0.37-2.36-0.44-3.57c-0.06-1.21,0.12-2.45,0.56-3.72c0.44-1.27,1.05-2.47,1.81-3.6
				c0.77-1.13,1.86-2.19,3.28-3.21c1.42-1.01,3.08-1.86,4.97-2.55c1.99-0.75,4.05-1.3,6.17-1.66c2.12-0.36,4.06-0.59,5.8-0.69
				c1.75-0.1,3.7-0.01,5.85,0.27c2.15,0.28,3.96,0.56,5.41,0.86c1.45,0.29,3.27,0.78,5.46,1.47c2.19,0.69,3.86,1.24,5.02,1.66
				c1.16,0.42,2.83,1.05,5.02,1.86c1.86,0.68,3.26,1.2,4.21,1.54c0.95,0.34,2.24,0.78,3.87,1.32c1.63,0.54,2.94,0.91,3.92,1.1
				c0.98,0.2,2.16,0.38,3.55,0.56c1.39,0.18,2.59,0.21,3.6,0.1c1.01-0.11,2.09-0.34,3.23-0.68c1.14-0.34,2.22-0.81,3.23-1.4
				C852.43,590.21,852.74,590.16,853.09,590.24z"/>
			<path class="st0" d="M849.39,624.99c0.36,0.02,0.65,0.16,0.88,0.42c0.23,0.26,0.33,0.57,0.32,0.93
				c-0.02,0.36-0.16,0.65-0.42,0.88c-0.39,0.36-0.86,0.76-1.42,1.2c-0.55,0.44-1.62,1.19-3.18,2.25c-1.57,1.06-3.09,1.96-4.58,2.69
				c-1.49,0.74-3.2,1.35-5.14,1.84c-1.94,0.49-3.71,0.62-5.31,0.39c-1.5-0.26-2.87-0.82-4.11-1.69c-1.24-0.86-2.22-1.95-2.94-3.26
				c-0.56-1.01-1.39-1.57-2.5-1.66c-0.42-0.03-0.9,0.05-1.42,0.25s-1.18,0.55-1.98,1.05c-0.8,0.51-1.74,1.34-2.82,2.5
				c-1.08,1.16-2.2,2.6-3.38,4.33c-0.36,0.52-0.85,0.67-1.47,0.44s-0.9-0.67-0.83-1.32c0.2-2.48,0.69-5.65,1.47-9.5
				c-0.33-0.49-0.31-0.98,0.05-1.47l0.34-0.49c0.85-4.18,1.84-8.24,2.99-12.19c0.85-3.1,1.7-5.79,2.55-8.08s1.56-3.99,2.13-5.12
				c0.57-1.13,1.16-2.05,1.76-2.76c0.6-0.72,1.03-1.14,1.27-1.27c0.24-0.13,0.51-0.25,0.81-0.34c0.55-0.16,1.09-0.15,1.62,0.03
				c0.52,0.18,0.96,0.5,1.32,0.95c0.65,0.78,1,1.84,1.05,3.16c0.05,1.32-0.13,2.72-0.54,4.19c-0.41,1.47-1.02,3.1-1.84,4.9
				c-0.82,1.8-1.66,3.48-2.55,5.04c-0.88,1.57-1.86,3.2-2.94,4.9c-1.08,1.7-1.99,3.08-2.74,4.16c-0.75,1.08-1.49,2.12-2.2,3.13
				l-0.1,0.15l-0.29,0.44c-0.46,2.42-0.72,3.8-0.78,4.16c-0.03,0.23,0.06,0.39,0.27,0.49c0.21,0.1,0.4,0.07,0.56-0.1
				c2.84-2.97,5.47-4.36,7.88-4.16c0.95,0.07,1.82,0.36,2.62,0.88c0.8,0.52,1.43,1.21,1.88,2.06c0.55,0.98,1.29,1.8,2.2,2.45
				c0.91,0.65,1.93,1.06,3.04,1.22c1.37,0.2,2.93,0.06,4.68-0.42c1.75-0.47,3.29-1.06,4.63-1.76c1.34-0.7,2.72-1.54,4.16-2.52
				c1.44-0.98,2.39-1.66,2.86-2.06c0.47-0.39,0.87-0.72,1.2-0.98C848.72,625.09,849.03,624.98,849.39,624.99z M823.2,597.46
				c-0.62,0-1.71,1.75-3.26,5.26c-1.55,3.51-2.89,7.07-4.01,10.7c-1.13,3.62-1.49,5.55-1.1,5.78c0.16,0.1,0.49-0.18,0.98-0.83
				c0.49-0.65,1.04-1.54,1.66-2.67s1.28-2.41,1.98-3.84c0.7-1.44,1.35-2.89,1.96-4.38c0.6-1.48,1.12-2.91,1.54-4.28
				c0.42-1.37,0.68-2.54,0.78-3.5c0.1-0.96-0.02-1.66-0.34-2.08C823.3,597.51,823.23,597.46,823.2,597.46z"/>
			<path class="st0" d="M849.1,620.07c-0.65,0-1.06-0.33-1.22-0.98c-0.16-0.65,0.05-1.14,0.64-1.47c0.91-0.46,1.73-1.06,2.45-1.81
				c0.26-0.26,0.56-0.39,0.91-0.39c0.34,0,0.64,0.12,0.91,0.37c0.26,0.25,0.4,0.54,0.42,0.88c0.02,0.34-0.11,0.65-0.37,0.91
				c-0.91,0.95-1.94,1.71-3.08,2.3C849.54,620.01,849.33,620.07,849.1,620.07z M879.47,623.55c0.34,0,0.64,0.12,0.91,0.37
				c0.26,0.24,0.39,0.55,0.39,0.91s-0.11,0.67-0.34,0.93c-0.39,0.39-0.9,0.87-1.52,1.44c-0.62,0.57-1.75,1.5-3.4,2.79
				c-1.65,1.29-3.29,2.43-4.92,3.43c-1.63,1-3.56,1.89-5.78,2.67c-2.22,0.78-4.31,1.18-6.27,1.18c-3,0.03-5.7-0.85-8.08-2.64
				c-0.91-0.65-1.57-1.52-1.96-2.59s-0.57-2.07-0.54-2.99c0.03-0.91,0.2-1.89,0.49-2.94c0.29-1.04,0.53-1.78,0.71-2.2
				c0.18-0.42,0.33-0.77,0.46-1.03c0.2-0.29,0.46-0.49,0.78-0.59c0.33-0.1,0.64-0.07,0.95,0.1c0.31,0.16,0.52,0.41,0.64,0.74
				c0.11,0.33,0.09,0.64-0.07,0.93c-0.07,0.16-0.17,0.4-0.32,0.71c-0.15,0.31-0.34,0.86-0.59,1.64c-0.24,0.78-0.4,1.52-0.46,2.2
				c-0.07,0.69,0.01,1.41,0.22,2.18c0.21,0.77,0.61,1.36,1.2,1.79c1.44,1.04,3.04,1.69,4.8,1.93c1.76,0.24,3.45,0.17,5.07-0.22
				c1.62-0.39,3.28-1,4.99-1.84c1.71-0.83,3.21-1.69,4.5-2.57c1.29-0.88,2.53-1.81,3.72-2.79c1.19-0.98,2.03-1.7,2.52-2.18
				c0.49-0.47,0.82-0.79,0.98-0.95C878.83,623.68,879.13,623.55,879.47,623.55z"/>
			<path class="st0" d="M916.8,624.85c0.36,0.02,0.65,0.16,0.88,0.42c0.23,0.26,0.33,0.57,0.32,0.93c-0.02,0.36-0.16,0.65-0.42,0.88
				c-0.29,0.26-0.68,0.6-1.15,1c-0.47,0.41-1.33,1.07-2.57,1.98c-1.24,0.91-2.5,1.75-3.77,2.5c-1.27,0.75-2.78,1.49-4.5,2.23
				c-1.73,0.73-3.39,1.25-4.99,1.54c-1.6,0.29-3.28,0.32-5.04,0.07c-1.76-0.25-3.38-0.84-4.85-1.79c-1.37-0.88-2.46-2.02-3.28-3.43
				c-0.23-0.39-0.58-0.6-1.05-0.64c-0.47-0.03-0.84,0.15-1.1,0.54c-1.14,1.76-2.39,3.25-3.75,4.46c-1.36,1.21-2.6,1.83-3.75,1.86
				h-0.05c-0.59-0.03-1.13-0.22-1.64-0.56c-0.51-0.34-0.87-0.79-1.1-1.35c-0.98-2.45-0.83-4.83,0.44-7.15
				c1.08-2.25,2.59-4.17,4.53-5.75c1.94-1.58,4.14-2.67,6.58-3.26c0.49-0.13,0.91-0.01,1.25,0.34c0.34,0.36,0.44,0.78,0.29,1.25
				c-0.15,0.47-0.47,0.78-0.96,0.91c-2.06,0.49-3.9,1.4-5.53,2.72c-1.63,1.32-2.9,2.95-3.82,4.87c-0.91,1.57-1.08,3.2-0.49,4.9
				c0.2,0.33,0.34,0.49,0.44,0.49c0.56,0.36,1.63-0.65,3.23-3.04c1.6-2.38,3.04-4.96,4.31-7.74c0.26-0.59,0.72-0.83,1.37-0.73
				c0.62,0.1,0.98,0.46,1.08,1.08c0.03,0.16,0.07,0.38,0.12,0.66c0.05,0.28,0.19,0.78,0.42,1.52c0.23,0.74,0.49,1.43,0.78,2.08
				c0.29,0.65,0.72,1.35,1.27,2.08c0.55,0.73,1.16,1.31,1.81,1.74c1.24,0.82,2.64,1.31,4.19,1.47c1.55,0.16,3.03,0.08,4.45-0.25
				c1.42-0.33,2.91-0.84,4.48-1.54c1.57-0.7,2.92-1.41,4.06-2.13c1.14-0.72,2.27-1.48,3.38-2.3c1.11-0.82,1.87-1.4,2.28-1.74
				c0.41-0.34,0.71-0.61,0.91-0.81C916.13,624.94,916.44,624.83,916.8,624.85z"/>
			<path class="st0" d="M950.39,624.28c0.26,0.23,0.4,0.52,0.42,0.88c0.02,0.36-0.11,0.65-0.37,0.88c-2.22,2.35-4.94,3.7-8.15,4.04
				c-3.22,0.34-6.16-0.38-8.84-2.18c-0.59-0.39-1.14-0.34-1.66,0.15c-1.93,1.89-3.72,3.88-5.39,5.97c-0.16,0.2-0.26,0.41-0.29,0.64
				c-0.88,5.25-2.21,10.42-3.99,15.49c-1.78,5.07-3.45,8.13-5.02,9.18c-0.46,0.33-0.95,0.49-1.47,0.49c-0.69,0-1.26-0.24-1.71-0.74
				c-1.08-1.14-1.55-2.5-1.42-4.06c0.07-2.61,1.14-5.87,3.23-9.77c2.09-3.9,4.68-7.81,7.78-11.73c0.16-0.23,0.26-0.47,0.29-0.74
				c0.23-1.44,0.37-2.74,0.44-3.92c-2.09,4.05-4.14,6.28-6.17,6.71c-1.44,0.26-2.61-0.18-3.52-1.32c-0.42-0.46-0.69-1.07-0.78-1.84
				c-0.1-0.77-0.07-1.53,0.07-2.3c0.15-0.77,0.38-1.54,0.71-2.32c0.91-2.45,2.41-4.47,4.5-6.07c2.09-1.6,4.44-2.51,7.05-2.74
				c0.36-0.03,0.68,0.07,0.95,0.29c0.28,0.23,0.42,0.52,0.44,0.88c0.02,0.36-0.09,0.68-0.32,0.95c-0.23,0.28-0.52,0.42-0.88,0.42
				c-2.12,0.23-4.02,0.99-5.7,2.28c-1.68,1.29-2.9,2.91-3.65,4.87c-0.65,1.24-0.82,2.53-0.49,3.87c0.39,0.42,0.77,0.59,1.13,0.49
				c0.95-0.16,2.04-1.27,3.28-3.33c1.24-2.06,2.27-4.21,3.08-6.46c0.2-0.55,0.59-0.83,1.17-0.83c0.59,0,1,0.26,1.22,0.78
				c0.33,1.01,0.49,2.06,0.49,3.13c0,0.33,0.03,0.62,0.1,0.88c0.06,0.26,0.17,0.51,0.32,0.74c0.15,0.23,0.37,0.28,0.69,0.15
				c0.31-0.13,0.69-0.44,1.15-0.93c0.2-0.23,0.77-0.8,1.71-1.71c0.46-0.42,1-0.65,1.64-0.69c0.64-0.03,1.22,0.15,1.74,0.54
				c2.15,1.73,4.61,2.51,7.37,2.33s5.1-1.28,7.03-3.3c0.23-0.26,0.52-0.4,0.88-0.42C949.82,623.9,950.13,624.02,950.39,624.28z
				 M917.78,654.15c1.08-2.15,2.28-5.18,3.6-9.08c1.32-3.9,1.77-5.93,1.35-6.09c-0.33-0.13-1.1,0.88-2.33,3.03
				c-1.22,2.15-2.41,4.59-3.55,7.29c-1.14,2.71-1.73,4.63-1.76,5.78c-0.03,1.31,0.16,2.02,0.59,2.15c0.26,0.07,0.5-0.07,0.71-0.39
				c0.21-0.33,0.58-1.03,1.1-2.1C917.62,654.51,917.72,654.31,917.78,654.15z"/>
			<path class="st0" d="M983.38,622.87c0.36,0,0.67,0.13,0.93,0.39c0.26,0.26,0.39,0.57,0.39,0.93c0,0.36-0.13,0.65-0.39,0.88
				c-1.99,1.99-4.2,3.63-6.63,4.92c-2.43,1.29-4.81,2.18-7.12,2.67c-2.32,0.49-4.51,0.73-6.59,0.71c-2.07-0.02-3.92-0.27-5.56-0.76
				c-0.23-0.06-0.41,0.02-0.54,0.25c-0.43,0.98-1.07,1.76-1.93,2.35c-0.87,0.59-1.84,0.9-2.91,0.93c-1.08,0-2.07-0.26-2.99-0.78
				c-1.24-0.59-2.12-1.5-2.64-2.74c-0.52-1.24-0.57-2.51-0.15-3.82c0.42-1.7,1.32-3.25,2.69-4.65c1.37-1.4,2.66-2.1,3.87-2.1h0.05
				c0.36,0,0.66,0.13,0.91,0.39c0.24,0.26,0.37,0.56,0.37,0.91c0,0.34-0.13,0.64-0.39,0.88c-0.26,0.25-0.57,0.37-0.93,0.37
				c-0.52,0-1.26,0.51-2.2,1.54c-0.95,1.03-1.58,2.13-1.91,3.3c-0.26,0.72-0.25,1.43,0.05,2.13c0.29,0.7,0.78,1.2,1.47,1.49
				c0.59,0.46,1.24,0.65,1.96,0.56c0.72-0.08,1.31-0.4,1.76-0.95c0.65-0.72,0.78-1.22,0.39-1.52c-0.91-0.59-1.48-1.42-1.71-2.5
				s-0.05-2.07,0.54-2.99c1.27-2.15,2.55-2.86,3.82-2.1c0.62,0.36,1.03,1.08,1.22,2.15s0.18,2.2-0.05,3.38
				c-0.07,0.29,0,0.58,0.2,0.86c0.2,0.28,0.44,0.45,0.73,0.51c4.11,0.69,8.14,0.39,12.09-0.88c3.95-1.27,7.39-3.38,10.33-6.31
				C982.73,623,983.02,622.87,983.38,622.87z M956.6,628.79c0.13-0.78,0.16-1.58,0.1-2.4c-0.13,0.23-0.24,0.41-0.34,0.54
				c-0.2,0.29-0.28,0.62-0.25,0.98C956.15,628.27,956.31,628.56,956.6,628.79z"/>
			<path class="st0" d="M1036.11,630.31c-0.46,1.34-1.23,2.51-2.33,3.53c-1.09,1.01-2.39,1.8-3.89,2.37
				c-1.5,0.57-3.06,0.99-4.68,1.25c-1.61,0.26-3.3,0.39-5.07,0.39c-0.78,0-1.53-0.02-2.25-0.05c-1.63-0.1-3.24-0.33-4.82-0.69
				c-1.58-0.36-3.09-0.84-4.53-1.44c-1.44-0.6-2.64-1.39-3.62-2.37c-0.98-0.98-1.58-2.07-1.81-3.28c-0.42-2.32,0.62-4.68,3.13-7.1
				c2.51-2.42,6.46-4.85,11.85-7.29c0.46-0.23,0.89-0.2,1.3,0.07c0.41,0.28,0.59,0.67,0.54,1.17c-0.05,0.51-0.3,0.86-0.76,1.05
				c-2.48,1.14-4.63,2.27-6.44,3.38c-1.81,1.11-3.17,2.06-4.06,2.86c-0.9,0.8-1.6,1.58-2.1,2.35c-0.51,0.77-0.8,1.37-0.88,1.81
				c-0.08,0.44-0.09,0.84-0.02,1.2c0.26,1.44,1.57,2.69,3.92,3.77s5.19,1.71,8.52,1.91c2.25,0.16,4.44,0.08,6.56-0.24
				c2.12-0.33,4.04-0.95,5.75-1.88c1.71-0.93,2.8-2.11,3.26-3.55c0.29-0.88,0.46-1.77,0.49-2.67c0.03-0.9-0.1-1.82-0.39-2.77
				c-0.29-0.95-0.6-1.83-0.93-2.64c-0.33-0.82-0.86-1.74-1.59-2.77s-1.37-1.9-1.91-2.62c-0.54-0.72-1.32-1.63-2.35-2.74
				c-1.03-1.11-1.84-1.97-2.42-2.59c-0.59-0.62-1.47-1.5-2.64-2.64c-1.08-1.14-1.9-2-2.47-2.57c-0.57-0.57-1.35-1.4-2.35-2.5
				c-1-1.09-1.75-1.97-2.28-2.62c-0.52-0.65-1.15-1.5-1.89-2.55c-0.73-1.04-1.27-1.93-1.62-2.67c-0.34-0.74-0.68-1.6-1.03-2.59
				c-0.34-0.99-0.53-1.9-0.56-2.72c-0.03-0.82,0.04-1.7,0.22-2.64c0.18-0.95,0.48-1.86,0.91-2.74c1.21-2.41,3.26-4.05,6.17-4.92
				c2.9-0.86,6.48-0.91,10.72-0.12c3.92,0.75,7.85,2.06,11.8,3.92c3.95,1.86,7.3,4.07,10.06,6.63c2.76,2.56,4.24,5.02,4.43,7.37
				c0.29,3.26-1.78,5.75-6.22,7.44c-4.96,1.37-9.99,1.68-15.08,0.93c-0.33-0.07-0.6-0.24-0.81-0.51c-0.21-0.28-0.29-0.59-0.25-0.93
				c0.05-0.34,0.21-0.62,0.49-0.83c0.28-0.21,0.58-0.3,0.91-0.27c4.67,0.69,9.27,0.42,13.81-0.78c3.23-1.24,4.76-2.84,4.6-4.8
				c-0.16-1.79-1.46-3.78-3.89-5.95c-2.43-2.17-5.51-4.15-9.23-5.95c-3.72-1.8-7.42-3.04-11.11-3.72c-1.24-0.23-2.46-0.38-3.67-0.46
				c-1.21-0.08-2.52-0.05-3.94,0.1c-1.42,0.15-2.71,0.56-3.87,1.23c-1.16,0.67-2.03,1.59-2.62,2.76c-0.36,0.72-0.6,1.46-0.71,2.23
				c-0.12,0.77-0.16,1.49-0.12,2.18c0.03,0.68,0.22,1.45,0.56,2.3c0.34,0.85,0.67,1.59,0.98,2.23c0.31,0.64,0.81,1.41,1.49,2.32
				c0.68,0.91,1.26,1.67,1.74,2.25c0.47,0.59,1.17,1.39,2.11,2.4c0.93,1.01,1.66,1.79,2.18,2.32c0.52,0.54,1.32,1.35,2.4,2.42
				c1.11,1.11,1.94,1.96,2.5,2.55c0.55,0.59,1.34,1.42,2.35,2.5c1.01,1.08,1.78,1.95,2.3,2.62c0.52,0.67,1.17,1.53,1.93,2.57
				c0.77,1.04,1.34,1.95,1.71,2.72c0.37,0.77,0.77,1.65,1.2,2.64c0.42,1,0.68,1.93,0.78,2.79c0.1,0.86,0.12,1.79,0.07,2.77
				C1036.57,628.4,1036.4,629.36,1036.11,630.31z"/>
			<path class="st0" d="M1042.76,620.07c-0.65,0-1.06-0.33-1.22-0.98c-0.16-0.65,0.05-1.14,0.64-1.47c0.91-0.46,1.73-1.06,2.45-1.81
				c0.26-0.26,0.56-0.39,0.91-0.39c0.34,0,0.64,0.12,0.91,0.37c0.26,0.25,0.4,0.54,0.42,0.88c0.02,0.34-0.11,0.65-0.37,0.91
				c-0.91,0.95-1.94,1.71-3.08,2.3C1043.2,620.01,1042.99,620.07,1042.76,620.07z M1073.14,623.55c0.34,0,0.64,0.12,0.91,0.37
				c0.26,0.24,0.39,0.55,0.39,0.91s-0.11,0.67-0.34,0.93c-0.39,0.39-0.9,0.87-1.52,1.44c-0.62,0.57-1.75,1.5-3.4,2.79
				c-1.65,1.29-3.29,2.43-4.92,3.43c-1.63,1-3.56,1.89-5.78,2.67c-2.22,0.78-4.31,1.18-6.27,1.18c-3,0.03-5.7-0.85-8.08-2.64
				c-0.91-0.65-1.57-1.52-1.96-2.59s-0.57-2.07-0.54-2.99c0.03-0.91,0.2-1.89,0.49-2.94c0.29-1.04,0.53-1.78,0.71-2.2
				c0.18-0.42,0.33-0.77,0.46-1.03c0.2-0.29,0.46-0.49,0.78-0.59c0.33-0.1,0.64-0.07,0.95,0.1c0.31,0.16,0.52,0.41,0.64,0.74
				c0.11,0.33,0.09,0.64-0.07,0.93c-0.07,0.16-0.17,0.4-0.32,0.71c-0.15,0.31-0.34,0.86-0.59,1.64c-0.24,0.78-0.4,1.52-0.46,2.2
				c-0.07,0.69,0.01,1.41,0.22,2.18c0.21,0.77,0.61,1.36,1.2,1.79c1.44,1.04,3.04,1.69,4.8,1.93c1.76,0.24,3.45,0.17,5.07-0.22
				c1.62-0.39,3.28-1,4.99-1.84c1.71-0.83,3.21-1.69,4.5-2.57c1.29-0.88,2.53-1.81,3.72-2.79c1.19-0.98,2.03-1.7,2.52-2.18
				c0.49-0.47,0.82-0.79,0.98-0.95C1072.5,623.68,1072.8,623.55,1073.14,623.55z"/>
			<path class="st0" d="M1105.16,624.24c0.34,0,0.64,0.12,0.91,0.37c0.26,0.25,0.39,0.55,0.39,0.91c0,0.36-0.13,0.67-0.39,0.93
				c-0.42,0.39-0.92,0.85-1.49,1.37c-0.57,0.52-1.68,1.42-3.33,2.69c-1.65,1.27-3.26,2.38-4.85,3.33c-1.58,0.95-3.44,1.8-5.58,2.57
				c-2.14,0.77-4.14,1.15-6,1.15c-1.21,0-2.38-0.16-3.52-0.49c-2.12-0.62-3.89-1.9-5.31-3.84c-1.42-1.94-2.46-4.45-3.11-7.51
				c-0.07-0.16-0.1-0.33-0.1-0.49c-0.29-1.6-0.49-3.21-0.59-4.85c-0.2-3.53,0-7.25,0.59-11.16c0.59-3.92,1.52-7.39,2.79-10.43
				c1.27-3.04,2.71-4.9,4.31-5.58c0.69-0.29,1.4-0.34,2.15-0.15c0.75,0.2,1.35,0.59,1.81,1.18c0.69,0.72,1.07,1.8,1.15,3.23
				c0.08,1.44-0.1,3.08-0.54,4.94c-0.44,1.86-0.96,3.75-1.57,5.68c-0.6,1.93-1.36,3.95-2.28,6.07c-0.91,2.12-1.71,3.92-2.37,5.38
				c-0.67,1.47-1.35,2.91-2.03,4.31c-0.52,1.08-0.62,2.17-0.29,3.28c1.21,4.11,3.25,6.61,6.12,7.49c0.91,0.39,1.97,0.51,3.16,0.37
				c1.19-0.15,2.3-0.33,3.33-0.54c1.03-0.21,2.14-0.61,3.33-1.2c1.19-0.59,2.25-1.13,3.18-1.64c0.93-0.5,1.91-1.12,2.94-1.86
				c1.03-0.73,1.87-1.36,2.52-1.88c0.65-0.52,1.3-1.07,1.96-1.64c0.65-0.57,1.09-0.95,1.3-1.15c0.21-0.2,0.38-0.36,0.51-0.49
				C1104.51,624.35,1104.81,624.24,1105.16,624.24z M1074.93,619.63c0.03,0.23,0.15,0.38,0.34,0.46c0.2,0.08,0.36,0.03,0.49-0.17
				c0.88-1.4,1.93-3.89,3.16-7.47c1.22-3.57,2.19-7.06,2.89-10.45c0.7-3.39,0.76-5.4,0.17-6.02c-0.29-0.33-0.57-0.49-0.83-0.49
				c-0.1,0-0.2,0.02-0.29,0.05c-0.82,0.36-1.79,1.93-2.94,4.72c-1.14,2.79-2.05,6.08-2.72,9.86
				C1074.53,613.92,1074.44,617.09,1074.93,619.63z"/>
			<path class="st0" d="M1147.04,624.33c0.36,0,0.66,0.13,0.91,0.39c0.24,0.26,0.37,0.57,0.37,0.93c0,0.36-0.11,0.67-0.34,0.93
				c-2.42,2.42-5.63,4.53-9.64,6.34c-4.01,1.81-7.87,2.67-11.55,2.57c-3.04,0.07-5.73-0.85-8.08-2.74c-0.2-0.23-0.45-0.33-0.76-0.32
				c-0.31,0.02-0.56,0.14-0.76,0.37c-1.04,1.34-2.27,2.48-3.67,3.43c-0.88,0.59-1.86,0.9-2.94,0.93c-0.82,0-1.58-0.23-2.3-0.69
				c-0.03-0.03-0.08-0.08-0.15-0.15c-0.75-0.69-1.38-1.59-1.88-2.72c-0.51-1.13-0.85-2.19-1.03-3.21c-0.18-1.01-0.3-2.08-0.37-3.21
				c-0.07-1.13-0.08-1.92-0.05-2.37c0.03-0.46,0.06-0.83,0.1-1.13c0.03-0.36,0.19-0.64,0.47-0.86c0.28-0.21,0.59-0.3,0.93-0.27
				c0.34,0.03,0.63,0.19,0.86,0.47c0.23,0.28,0.33,0.58,0.29,0.91c-0.16,1.63-0.09,3.51,0.22,5.63c0.31,2.12,1,3.72,2.08,4.8
				c0.95,0.49,2.15,0.08,3.62-1.22c1.08-0.98,2.01-2.09,2.79-3.33c0.06-0.16,0.06-0.33,0-0.49c-0.62-1.27-0.98-2.55-1.08-3.82
				c-0.1-1.27,0.13-2.35,0.69-3.23c0.42-0.62,0.99-1.01,1.71-1.18c0.72-0.16,1.4-0.06,2.06,0.29c0.46,0.2,0.82,0.5,1.1,0.91
				c0.28,0.41,0.42,0.86,0.42,1.35c-0.07,2.02-0.62,3.92-1.66,5.68c-0.03,0.16-0.03,0.33,0,0.49c0.1,0.07,0.18,0.15,0.24,0.25
				c1.99,2.02,4.39,2.97,7.2,2.84c3.23,0.07,6.71-0.73,10.43-2.37c3.72-1.65,6.67-3.58,8.86-5.8
				C1146.37,624.47,1146.68,624.33,1147.04,624.33z M1117.96,626.19c0.36-0.78,0.52-1.6,0.49-2.45c-0.07-0.13-0.16-0.2-0.29-0.2
				c-0.13,0-0.23,0.05-0.29,0.15c-0.33,0.82-0.36,1.65-0.1,2.5c0.03,0.03,0.07,0.05,0.12,0.05
				C1117.93,626.24,1117.96,626.23,1117.96,626.19z"/>
			<path class="st0" d="M1185.81,624.85c0.36,0.02,0.65,0.16,0.88,0.42c0.23,0.26,0.33,0.57,0.32,0.93
				c-0.02,0.36-0.16,0.65-0.42,0.88c-0.29,0.26-0.68,0.6-1.15,1c-0.47,0.41-1.33,1.07-2.57,1.98c-1.24,0.91-2.5,1.75-3.77,2.5
				c-1.27,0.75-2.78,1.49-4.5,2.23c-1.73,0.73-3.39,1.25-4.99,1.54c-1.6,0.29-3.28,0.32-5.04,0.07c-1.76-0.25-3.38-0.84-4.85-1.79
				c-1.37-0.88-2.46-2.02-3.28-3.43c-0.23-0.39-0.58-0.6-1.05-0.64c-0.47-0.03-0.84,0.15-1.1,0.54c-1.14,1.76-2.39,3.25-3.75,4.46
				c-1.35,1.21-2.6,1.83-3.75,1.86h-0.05c-0.59-0.03-1.13-0.22-1.64-0.56c-0.51-0.34-0.87-0.79-1.1-1.35
				c-0.98-2.45-0.83-4.83,0.44-7.15c1.08-2.25,2.59-4.17,4.53-5.75c1.94-1.58,4.14-2.67,6.58-3.26c0.49-0.13,0.91-0.01,1.25,0.34
				c0.34,0.36,0.44,0.78,0.29,1.25c-0.15,0.47-0.47,0.78-0.96,0.91c-2.06,0.49-3.9,1.4-5.53,2.72c-1.63,1.32-2.9,2.95-3.82,4.87
				c-0.91,1.57-1.08,3.2-0.49,4.9c0.2,0.33,0.34,0.49,0.44,0.49c0.55,0.36,1.63-0.65,3.23-3.04c1.6-2.38,3.04-4.96,4.31-7.74
				c0.26-0.59,0.72-0.83,1.37-0.73c0.62,0.1,0.98,0.46,1.08,1.08c0.03,0.16,0.07,0.38,0.12,0.66c0.05,0.28,0.19,0.78,0.42,1.52
				c0.23,0.74,0.49,1.43,0.78,2.08c0.29,0.65,0.72,1.35,1.27,2.08c0.55,0.73,1.16,1.31,1.81,1.74c1.24,0.82,2.64,1.31,4.19,1.47
				c1.55,0.16,3.03,0.08,4.45-0.25c1.42-0.33,2.91-0.84,4.48-1.54s2.92-1.41,4.06-2.13c1.14-0.72,2.27-1.48,3.38-2.3
				c1.11-0.82,1.87-1.4,2.28-1.74c0.41-0.34,0.71-0.61,0.91-0.81C1185.14,624.94,1185.45,624.83,1185.81,624.85z"/>
		</g>
	</g>
</g>
</svg>
