<?xml version="1.0" encoding="utf-8"?>
<!-- Generator: Adobe Illustrator 27.0.1, SVG Export Plug-In . SVG Version: 6.00 Build 0)  -->
<svg version="1.1" xmlns="http://www.w3.org/2000/svg" xmlns:xlink="http://www.w3.org/1999/xlink" x="0px" y="0px"
	 viewBox="0 0 1836.4 2351.4" style="enable-background:new 0 0 1836.4 2351.4;" xml:space="preserve">
<style type="text/css">
	.st0{fill:url(#SVGID_1_);}
	.st1{fill:url(#SVGID_00000026864267286518357220000011009389734603747205_);}
	.st2{fill:url(#SVGID_00000067234068763811024370000000535224295552885382_);}
	.st3{fill:url(#SVGID_00000126281724953816114050000005510104875092570035_);}
	.st4{fill:url(#SVGID_00000079484842220860232510000007962468462501209989_);}
	.st5{fill:url(#SVGID_00000114055217758593305540000003648347710968787852_);}
	.st6{fill:url(#SVGID_00000163042585945323662890000009121889888783210414_);}
	.st7{fill:url(#SVGID_00000115481707896046161680000014244534235510962079_);}
	.st8{fill:url(#SVGID_00000178883329569715589740000004882306501995938176_);}
	.st9{fill:url(#SVGID_00000004521185706747246260000002684547827309926545_);}
	.st10{fill:url(#SVGID_00000144318568182723537040000000188057548647435415_);}
	.st11{fill:url(#SVGID_00000167356814374462762970000003314899277961646724_);}
	.st12{fill:url(#SVGID_00000034059475644122749570000012039478400541182366_);}
	.st13{fill:url(#SVGID_00000136375351329489215380000012155550539929559971_);}
	.st14{fill:url(#SVGID_00000038410119148860315760000004988672716496151217_);}
	.st15{fill:url(#SVGID_00000045607317008753009810000016783710588870668416_);}
	.st16{fill:url(#SVGID_00000094576415771247116840000001696212561103744660_);}
	.st17{fill:url(#SVGID_00000180327613902664645050000017930248632402564777_);}
	.st18{fill:url(#SVGID_00000011724620796824834760000007495547001368962964_);}
	.st19{fill:url(#SVGID_00000036215644767648270350000007939779095242263182_);}
	.st20{fill:url(#SVGID_00000127763694766993304290000010833515863052329355_);}
	.st21{fill:url(#SVGID_00000101072804921096200230000012475681153949589948_);}
	.st22{fill:url(#SVGID_00000021109490360970348430000017788052455792005816_);}
	.st23{fill:url(#SVGID_00000082354132979416246130000009907018556780521653_);}
	.st24{fill:url(#SVGID_00000059297483036085283840000016218977555601629570_);}
	.st25{fill:url(#SVGID_00000172407561308460237730000009093593884286007941_);}
	.st26{fill:#FF682A;}
	.st27{fill:url(#SVGID_00000121981690370018719670000013135079250434174870_);}
	.st28{fill:url(#SVGID_00000183957537115940288460000002101153637721268626_);}
	.st29{fill:url(#SVGID_00000149353472156913772340000011851323107720514981_);}
	.st30{fill:url(#SVGID_00000085938440078893065170000013232810415223826326_);}
	.st31{fill:url(#SVGID_00000073692978455484388520000011900351126297383083_);}
	.st32{fill:url(#SVGID_00000126316371166354170980000002276648222190278051_);}
	.st33{fill:url(#SVGID_00000032629168753716275760000008347792229719352981_);}
	.st34{fill:url(#SVGID_00000081624607388457036250000003171203932064092824_);}
	.st35{fill:url(#SVGID_00000122698911569462253960000014169484947043897495_);}
</style>
<g id="Background">
</g>
<g id="Objects">
	<g>
		<g>
			<linearGradient id="SVGID_1_" gradientUnits="userSpaceOnUse" x1="918.4384" y1="2111.8071" x2="918.4384" y2="2240.1228">
				<stop  offset="0" style="stop-color:#FF992A"/>
				<stop  offset="1" style="stop-color:#FF682A"/>
			</linearGradient>
			<path class="st0" d="M136,2160.9v72c0,22.4-9,34.1-27.3,34.1c-20.3,0-26.5-13.9-26.5-34V2161c0-21,8.7-33.4,27.2-33.4
				C129.1,2127.7,136,2142.7,136,2160.9z M92.4,2161.2v72c0,18,6.6,24.7,16.8,24.7c10.6,0,16.6-6.6,16.6-25.5v-71
				c0-16.9-6.1-24.5-16.8-24.5C97.7,2136.8,92.4,2144.1,92.4,2161.2z"/>
			
				<linearGradient id="SVGID_00000018204768145686995510000011572041341140434613_" gradientUnits="userSpaceOnUse" x1="918.4384" y1="2111.8071" x2="918.4384" y2="2240.1228">
				<stop  offset="0" style="stop-color:#FF992A"/>
				<stop  offset="1" style="stop-color:#FF682A"/>
			</linearGradient>
			<path style="fill:url(#SVGID_00000018204768145686995510000011572041341140434613_);" d="M154.2,2193.8c0-20.4,0-25.5-0.2-30.9
				h9.5c0.2,2.3,0.5,5.5,0.5,10.9c3.1-8.6,9.6-12.5,18.7-12.5c10.3,0,19.6,5.6,19.6,24v80h-10v-77.9c0-10.4-3.4-16.6-12.1-16.6
				c-9.5,0-15.9,4.5-15.9,27.8v66.8h-10V2193.8z"/>
			
				<linearGradient id="SVGID_00000038370990438683053650000006744291462386324885_" gradientUnits="userSpaceOnUse" x1="918.4384" y1="2111.8071" x2="918.4384" y2="2240.1228">
				<stop  offset="0" style="stop-color:#FF992A"/>
				<stop  offset="1" style="stop-color:#FF682A"/>
			</linearGradient>
			<path style="fill:url(#SVGID_00000038370990438683053650000006744291462386324885_);" d="M268,2123.3v117c0,9.7,0,19.1,0.2,25
				h-9.5c-0.2-1.5-0.5-7.2-0.5-10.3c-2.3,6.1-6.8,11.9-17.7,11.9c-16.4,0-21.2-12.9-21.2-32.4v-43.3c0-18.3,7.4-29.9,22.7-29.9
				c10.1,0,14.1,4.7,16,8v-46H268z M229.5,2191.8v42.4c0,15.6,3.9,23.4,13.1,23.4c12.4,0,15.5-12.2,15.5-28v-35.2
				c0-11.4-1.2-23.6-15-23.6C233.6,2170.7,229.5,2178.8,229.5,2191.8z"/>
			
				<linearGradient id="SVGID_00000121995695658426325840000008614462150999512496_" gradientUnits="userSpaceOnUse" x1="918.4384" y1="2111.8071" x2="918.4384" y2="2240.1228">
				<stop  offset="0" style="stop-color:#FF992A"/>
				<stop  offset="1" style="stop-color:#FF682A"/>
			</linearGradient>
			<path style="fill:url(#SVGID_00000121995695658426325840000008614462150999512496_);" d="M295.1,2215.3v18
				c0,11.8,2.2,24.8,13.9,24.8c10.8,0,13.2-8.3,13.2-19.9v-1.1h9.9v0.9c0,12.7-3.1,28.9-23.3,28.9c-18,0-23.6-12.5-23.6-33.4v-41.4
				c0-16.6,6.2-30.9,24.1-30.9c18.2,0,23.1,14.6,23.1,31c0,5.3,0,17.2,0,23H295.1z M322.6,2206.6v-14.4c0-9.6-1.1-22-13.4-22
				c-11.9,0-14,10.4-14,22.2v14.3H322.6z"/>
			
				<linearGradient id="SVGID_00000021114444474432893950000014367175203520530084_" gradientUnits="userSpaceOnUse" x1="918.4384" y1="2111.8071" x2="918.4384" y2="2240.1228">
				<stop  offset="0" style="stop-color:#FF992A"/>
				<stop  offset="1" style="stop-color:#FF682A"/>
			</linearGradient>
			<path style="fill:url(#SVGID_00000021114444474432893950000014367175203520530084_);" d="M419.6,2234.1v1.4
				c0,17.1-4.4,31.4-23.3,31.4c-17.4,0-22.7-12.4-22.7-32.9v-43c0-17.8,6.9-29.7,23.5-29.7c18,0,22.5,13.4,22.5,27.7v4.4h-10.1v-3
				c0-10.3-1.7-20.3-12.6-20.3c-9.3,0-13.2,6.9-13.2,21.5v43.6c0,10.8,2.1,22.8,12.8,22.8c9.2,0,13-5.6,13-21.8v-2.1H419.6z"/>
			
				<linearGradient id="SVGID_00000083769522456183715630000010650402941557918081_" gradientUnits="userSpaceOnUse" x1="918.4384" y1="2111.8071" x2="918.4384" y2="2240.1228">
				<stop  offset="0" style="stop-color:#FF992A"/>
				<stop  offset="1" style="stop-color:#FF682A"/>
			</linearGradient>
			<path style="fill:url(#SVGID_00000083769522456183715630000010650402941557918081_);" d="M475.9,2249.9c0,7.4,0.2,13,0.4,15.4
				h-9.5c-0.6-2.9-0.9-7-0.9-8.9c-3.1,8.5-10,10.5-16.6,10.5c-14.4,0-20-12.3-20-28.4v-1.8c0-21.7,12.5-30.9,30.6-30.9
				c1.9,0,3.4,0,5.9,0v-18.4c0-10.2-2-17-11.3-17c-9.3,0-12,7-12,16.2v3.5h-9.9v-3.4c0-13.9,5.6-25.4,22.3-25.4
				c16.5,0,21.1,11.4,21.1,25.4V2249.9z M466,2214.3c-1.5,0-4.4,0-6.1,0c-13.2,0-20.7,5.8-20.7,22v1.8c0,10.5,3,19.5,12.2,19.5
				c11.3,0,14.7-9.5,14.7-25.9V2214.3z"/>
			
				<linearGradient id="SVGID_00000152986770920255227020000006389176759720660393_" gradientUnits="userSpaceOnUse" x1="918.4384" y1="2111.8071" x2="918.4384" y2="2240.1228">
				<stop  offset="0" style="stop-color:#FF992A"/>
				<stop  offset="1" style="stop-color:#FF682A"/>
			</linearGradient>
			<path style="fill:url(#SVGID_00000152986770920255227020000006389176759720660393_);" d="M541.9,2123.3v117c0,9.7,0,19.1,0.2,25
				h-9.5c-0.2-1.5-0.5-7.2-0.5-10.3c-2.3,6.1-6.8,11.9-17.7,11.9c-16.4,0-21.2-12.9-21.2-32.4v-43.3c0-18.3,7.4-29.9,22.7-29.9
				c10.1,0,14.1,4.7,16,8v-46H541.9z M503.3,2191.8v42.4c0,15.6,3.9,23.4,13.1,23.4c12.4,0,15.5-12.2,15.5-28v-35.2
				c0-11.4-1.2-23.6-15-23.6C507.5,2170.7,503.3,2178.8,503.3,2191.8z"/>
			
				<linearGradient id="SVGID_00000132769906225662419430000014199688423722895757_" gradientUnits="userSpaceOnUse" x1="918.4384" y1="2111.8071" x2="918.4384" y2="2240.1228">
				<stop  offset="0" style="stop-color:#FF992A"/>
				<stop  offset="1" style="stop-color:#FF682A"/>
			</linearGradient>
			<path style="fill:url(#SVGID_00000132769906225662419430000014199688423722895757_);" d="M603.5,2249.9c0,7.4,0.2,13,0.4,15.4
				h-9.5c-0.6-2.9-0.9-7-0.9-8.9c-3.1,8.5-10,10.5-16.6,10.5c-14.4,0-20-12.3-20-28.4v-1.8c0-21.7,12.5-30.9,30.6-30.9
				c1.9,0,3.4,0,5.9,0v-18.4c0-10.2-2-17-11.3-17c-9.3,0-12,7-12,16.2v3.5h-9.9v-3.4c0-13.9,5.6-25.4,22.3-25.4
				c16.5,0,21.1,11.4,21.1,25.4V2249.9z M593.6,2214.3c-1.5,0-4.4,0-6.1,0c-13.2,0-20.7,5.8-20.7,22v1.8c0,10.5,3,19.5,12.2,19.5
				c11.3,0,14.7-9.5,14.7-25.9V2214.3z"/>
			
				<linearGradient id="SVGID_00000039133941686042672970000009548896602262457219_" gradientUnits="userSpaceOnUse" x1="918.4384" y1="2111.8071" x2="918.4384" y2="2240.1228">
				<stop  offset="0" style="stop-color:#FF992A"/>
				<stop  offset="1" style="stop-color:#FF682A"/>
			</linearGradient>
			<path style="fill:url(#SVGID_00000039133941686042672970000009548896602262457219_);" d="M651.8,2192.3c0-17.3,0-24.2-0.2-29.4
				h9.5c0.4,2.9,0.4,6.7,0.5,10c2.7-7,8-11.6,17.2-11.6c7.6,0,13.4,3,15.6,12.4c2.8-6.7,8.2-12.4,18.3-12.4
				c9.2,0,18.6,3.7,18.6,23.3v80.7h-10v-78.4c0-8.7-1.4-16.2-10.9-16.2c-11.3,0-13.8,10.7-13.8,22.4v72.2h-10V2188
				c0-12.2-2.8-17.3-11.3-17.3c-10.8,0-13.5,11-13.5,24v70.6h-10V2192.3z"/>
			
				<linearGradient id="SVGID_00000025444125033128671220000008612807916363344258_" gradientUnits="userSpaceOnUse" x1="918.4384" y1="2111.8071" x2="918.4384" y2="2240.1228">
				<stop  offset="0" style="stop-color:#FF992A"/>
				<stop  offset="1" style="stop-color:#FF682A"/>
			</linearGradient>
			<path style="fill:url(#SVGID_00000025444125033128671220000008612807916363344258_);" d="M797,2190.3v45.3
				c0,22.4-10.2,31.3-24.6,31.3c-14.2,0-24.1-8.5-24.1-30.5v-46.2c0-18,8.8-29,24.7-29C789.3,2161.3,797,2172.4,797,2190.3z
				 M758.5,2190.4v46.4c0,13.2,4.6,21.1,14.1,21.1c8.8,0,14.2-5.8,14.2-21.2v-46.3c0-11.6-4.2-20-14.1-20
				C762.7,2170.3,758.5,2177.7,758.5,2190.4z"/>
			
				<linearGradient id="SVGID_00000151505013229539288650000009835806525700648368_" gradientUnits="userSpaceOnUse" x1="918.4384" y1="2111.8071" x2="918.4384" y2="2240.1228">
				<stop  offset="0" style="stop-color:#FF992A"/>
				<stop  offset="1" style="stop-color:#FF682A"/>
			</linearGradient>
			<path style="fill:url(#SVGID_00000151505013229539288650000009835806525700648368_);" d="M814.2,2197.9c0-16.2,0-26.8-0.2-35h9.6
				c0.2,3.2,0.4,7.7,0.4,15.6c3.6-11.7,12.3-16.5,20.9-16.9v12.4c-13.3,0.2-20.7,10.5-20.7,27.3v64h-10V2197.9z"/>
			
				<linearGradient id="SVGID_00000150789932227556185740000011544523449419067035_" gradientUnits="userSpaceOnUse" x1="918.4384" y1="2111.8071" x2="918.4384" y2="2240.1228">
				<stop  offset="0" style="stop-color:#FF992A"/>
				<stop  offset="1" style="stop-color:#FF682A"/>
			</linearGradient>
			<path style="fill:url(#SVGID_00000150789932227556185740000011544523449419067035_);" d="M901.8,2123.3v117c0,9.7,0,19.1,0.2,25
				h-9.5c-0.2-1.5-0.5-7.2-0.5-10.3c-2.3,6.1-6.8,11.9-17.7,11.9c-16.4,0-21.2-12.9-21.2-32.4v-43.3c0-18.3,7.4-29.9,22.7-29.9
				c10.1,0,14.1,4.7,16,8v-46H901.8z M863.2,2191.8v42.4c0,15.6,3.9,23.4,13.1,23.4c12.4,0,15.5-12.2,15.5-28v-35.2
				c0-11.4-1.2-23.6-15-23.6C867.4,2170.7,863.2,2178.8,863.2,2191.8z"/>
			
				<linearGradient id="SVGID_00000091693694120896873820000015017449711548635573_" gradientUnits="userSpaceOnUse" x1="918.4384" y1="2111.8071" x2="918.4384" y2="2240.1228">
				<stop  offset="0" style="stop-color:#FF992A"/>
				<stop  offset="1" style="stop-color:#FF682A"/>
			</linearGradient>
			<path style="fill:url(#SVGID_00000091693694120896873820000015017449711548635573_);" d="M922,2162.9h10v102.4h-10V2162.9z
				 M922.1,2123.3h10v20.1h-10V2123.3z"/>
			
				<linearGradient id="SVGID_00000064319470683521698390000012846600209194545557_" gradientUnits="userSpaceOnUse" x1="918.4384" y1="2111.8071" x2="918.4384" y2="2240.1228">
				<stop  offset="0" style="stop-color:#FF992A"/>
				<stop  offset="1" style="stop-color:#FF682A"/>
			</linearGradient>
			<path style="fill:url(#SVGID_00000064319470683521698390000012846600209194545557_);" d="M997.8,2123.3v117c0,9.7,0,19.1,0.2,25
				h-9.5c-0.2-1.5-0.5-7.2-0.5-10.3c-2.3,6.1-6.8,11.9-17.7,11.9c-16.4,0-21.2-12.9-21.2-32.4v-43.3c0-18.3,7.4-29.9,22.7-29.9
				c10.1,0,14.1,4.7,16,8v-46H997.8z M959.3,2191.8v42.4c0,15.6,3.9,23.4,13.1,23.4c12.4,0,15.5-12.2,15.5-28v-35.2
				c0-11.4-1.2-23.6-15-23.6C963.4,2170.7,959.3,2178.8,959.3,2191.8z"/>
			
				<linearGradient id="SVGID_00000120520879991166892920000003132809676437537416_" gradientUnits="userSpaceOnUse" x1="918.4384" y1="2111.8071" x2="918.4384" y2="2240.1228">
				<stop  offset="0" style="stop-color:#FF992A"/>
				<stop  offset="1" style="stop-color:#FF682A"/>
			</linearGradient>
			<path style="fill:url(#SVGID_00000120520879991166892920000003132809676437537416_);" d="M1059.4,2249.9c0,7.4,0.2,13,0.4,15.4
				h-9.5c-0.6-2.9-0.9-7-0.9-8.9c-3.1,8.5-10,10.5-16.6,10.5c-14.4,0-20-12.3-20-28.4v-1.8c0-21.7,12.5-30.9,30.6-30.9
				c1.9,0,3.4,0,5.9,0v-18.4c0-10.2-2-17-11.3-17c-9.3,0-12,7-12,16.2v3.5h-9.9v-3.4c0-13.9,5.6-25.4,22.3-25.4
				c16.5,0,21.1,11.4,21.1,25.4V2249.9z M1049.5,2214.3c-1.5,0-4.4,0-6.1,0c-13.2,0-20.7,5.8-20.7,22v1.8c0,10.5,3,19.5,12.2,19.5
				c11.3,0,14.7-9.5,14.7-25.9V2214.3z"/>
			
				<linearGradient id="SVGID_00000036253048220653220420000004819500931750790077_" gradientUnits="userSpaceOnUse" x1="918.4384" y1="2111.8071" x2="918.4384" y2="2240.1228">
				<stop  offset="0" style="stop-color:#FF992A"/>
				<stop  offset="1" style="stop-color:#FF682A"/>
			</linearGradient>
			<path style="fill:url(#SVGID_00000036253048220653220420000004819500931750790077_);" d="M1114.6,2215.3v18
				c0,11.8,2.2,24.8,13.9,24.8c10.8,0,13.2-8.3,13.2-19.9v-1.1h9.9v0.9c0,12.7-3.1,28.9-23.3,28.9c-18,0-23.6-12.5-23.6-33.4v-41.4
				c0-16.6,6.2-30.9,24.1-30.9c18.2,0,23.1,14.6,23.1,31c0,5.3,0,17.2,0,23H1114.6z M1142.1,2206.6v-14.4c0-9.6-1.1-22-13.4-22
				c-11.9,0-14,10.4-14,22.2v14.3H1142.1z M1153.6,2122.3l-23,26.3h-9.2l20.2-26.3H1153.6z"/>
			
				<linearGradient id="SVGID_00000183211906808820889070000002107030328636959932_" gradientUnits="userSpaceOnUse" x1="918.4384" y1="2111.8071" x2="918.4384" y2="2240.1228">
				<stop  offset="0" style="stop-color:#FF992A"/>
				<stop  offset="1" style="stop-color:#FF682A"/>
			</linearGradient>
			<path style="fill:url(#SVGID_00000183211906808820889070000002107030328636959932_);" d="M1243.2,2239.2c0,12,0,21.6,0.2,26.1
				h-9.5c-0.2-1.7-0.5-7.1-0.5-11.3c-2.8,9.5-8.8,12.9-17.9,12.9c-7.6,0-19.6-2.4-19.6-25.8v-78.2h10v75.6
				c0,14.1,3.7,19.2,12.3,19.2c7.6,0,15-4.4,15-28.4v-66.4h10V2239.2z"/>
			
				<linearGradient id="SVGID_00000165201657260590696550000000862423269479876742_" gradientUnits="userSpaceOnUse" x1="918.4384" y1="2111.8071" x2="918.4384" y2="2240.1228">
				<stop  offset="0" style="stop-color:#FF992A"/>
				<stop  offset="1" style="stop-color:#FF682A"/>
			</linearGradient>
			<path style="fill:url(#SVGID_00000165201657260590696550000000862423269479876742_);" d="M1263.4,2192.3c0-17.3,0-24.2-0.2-29.4
				h9.5c0.4,2.9,0.4,6.7,0.5,10c2.7-7,8-11.6,17.2-11.6c7.6,0,13.4,3,15.6,12.4c2.8-6.7,8.2-12.4,18.3-12.4
				c9.2,0,18.6,3.7,18.6,23.3v80.7h-10v-78.4c0-8.7-1.4-16.2-10.9-16.2c-11.3,0-13.8,10.7-13.8,22.4v72.2h-10V2188
				c0-12.2-2.8-17.3-11.3-17.3c-10.8,0-13.5,11-13.5,24v70.6h-10V2192.3z"/>
			
				<linearGradient id="SVGID_00000064322538738100952550000012617876138032561797_" gradientUnits="userSpaceOnUse" x1="918.4384" y1="2111.8071" x2="918.4384" y2="2240.1228">
				<stop  offset="0" style="stop-color:#FF992A"/>
				<stop  offset="1" style="stop-color:#FF682A"/>
			</linearGradient>
			<path style="fill:url(#SVGID_00000064322538738100952550000012617876138032561797_);" d="M1404.5,2249.9c0,7.4,0.2,13,0.4,15.4
				h-9.5c-0.6-2.9-0.9-7-0.9-8.9c-3.1,8.5-10,10.5-16.6,10.5c-14.4,0-20-12.3-20-28.4v-1.8c0-21.7,12.5-30.9,30.6-30.9
				c1.9,0,3.4,0,5.9,0v-18.4c0-10.2-2-17-11.3-17c-9.3,0-12,7-12,16.2v3.5h-9.9v-3.4c0-13.9,5.6-25.4,22.3-25.4
				c16.5,0,21.1,11.4,21.1,25.4V2249.9z M1394.6,2214.3c-1.5,0-4.4,0-6.1,0c-13.2,0-20.7,5.8-20.7,22v1.8c0,10.5,3,19.5,12.2,19.5
				c11.3,0,14.7-9.5,14.7-25.9V2214.3z"/>
			
				<linearGradient id="SVGID_00000076572971335720803030000004299525456190026136_" gradientUnits="userSpaceOnUse" x1="918.4384" y1="2111.8071" x2="918.4384" y2="2240.1228">
				<stop  offset="0" style="stop-color:#FF992A"/>
				<stop  offset="1" style="stop-color:#FF682A"/>
			</linearGradient>
			<path style="fill:url(#SVGID_00000076572971335720803030000004299525456190026136_);" d="M1453.9,2265.3v-93.4h-11.4v-9h11.4
				v-17.5c0-11.3,3.9-22.9,18.6-22.9c2.1,0,4.8,0.2,6.1,0.6v9.6c-1.8-0.4-3.3-0.5-5.2-0.5c-7.9,0-9.5,5.8-9.5,14.2v16.6h13.6v9
				h-13.6v93.4H1453.9z"/>
			
				<linearGradient id="SVGID_00000064322866984458963050000012376283650977232263_" gradientUnits="userSpaceOnUse" x1="918.4384" y1="2111.8071" x2="918.4384" y2="2240.1228">
				<stop  offset="0" style="stop-color:#FF992A"/>
				<stop  offset="1" style="stop-color:#FF682A"/>
			</linearGradient>
			<path style="fill:url(#SVGID_00000064322866984458963050000012376283650977232263_);" d="M1487.8,2162.9h10v102.4h-10V2162.9z
				 M1487.9,2123.3h10v20.1h-10V2123.3z"/>
			
				<linearGradient id="SVGID_00000005984216443689540850000018242142264620895623_" gradientUnits="userSpaceOnUse" x1="918.4384" y1="2111.8071" x2="918.4384" y2="2240.1228">
				<stop  offset="0" style="stop-color:#FF992A"/>
				<stop  offset="1" style="stop-color:#FF682A"/>
			</linearGradient>
			<path style="fill:url(#SVGID_00000005984216443689540850000018242142264620895623_);" d="M1524.8,2215.3v18
				c0,11.8,2.2,24.8,13.9,24.8c10.8,0,13.2-8.3,13.2-19.9v-1.1h9.9v0.9c0,12.7-3.1,28.9-23.3,28.9c-18,0-23.6-12.5-23.6-33.4v-41.4
				c0-16.6,6.2-30.9,24.1-30.9c18.2,0,23.1,14.6,23.1,31c0,5.3,0,17.2,0,23H1524.8z M1552.2,2206.6v-14.4c0-9.6-1.1-22-13.4-22
				c-11.9,0-14,10.4-14,22.2v14.3H1552.2z"/>
			
				<linearGradient id="SVGID_00000152253276550896888700000005106172483298493333_" gradientUnits="userSpaceOnUse" x1="918.4384" y1="2111.8071" x2="918.4384" y2="2240.1228">
				<stop  offset="0" style="stop-color:#FF992A"/>
				<stop  offset="1" style="stop-color:#FF682A"/>
			</linearGradient>
			<path style="fill:url(#SVGID_00000152253276550896888700000005106172483298493333_);" d="M1584.4,2236v4.4
				c0,12.5,5.5,17.7,13.4,17.7c9.4,0,13-6,13-17.2c0-12.2-3.7-17.1-14.8-24.6c-13.5-9-19.5-16.1-19.5-30c0-13.6,5.9-25,21.9-25
				c17.3,0,21.4,12.2,21.4,25.2v5.1h-9.8v-5.2c0-9.8-2.6-16.2-11.8-16.2c-8.1,0-11.5,5.5-11.5,15.2c0,9.6,2.9,13.7,13.8,21.1
				c13,8.8,20.7,15.8,20.7,32.8c0,17.8-7.3,27.7-23.8,27.7c-18,0-22.9-12.5-22.9-26.2v-4.7H1584.4z"/>
			
				<linearGradient id="SVGID_00000160908792434059285200000005032197459528977551_" gradientUnits="userSpaceOnUse" x1="918.4384" y1="2111.8071" x2="918.4384" y2="2240.1228">
				<stop  offset="0" style="stop-color:#FF992A"/>
				<stop  offset="1" style="stop-color:#FF682A"/>
			</linearGradient>
			<path style="fill:url(#SVGID_00000160908792434059285200000005032197459528977551_);" d="M1626.9,2162.9h12.4v-25.6h9.8v25.6
				h15.6v9h-15.6v74.6c0,5.6,1.1,11.4,7.8,11.4c2,0,5.3-0.2,7-0.6v8c-2.8,1-6.9,1.2-10.1,1.2c-7.9,0-14.5-4.1-14.5-18.2v-76.4h-12.4
				V2162.9z"/>
			
				<linearGradient id="SVGID_00000091008719916172586740000004820370891053269942_" gradientUnits="userSpaceOnUse" x1="918.4384" y1="2111.8071" x2="918.4384" y2="2240.1228">
				<stop  offset="0" style="stop-color:#FF992A"/>
				<stop  offset="1" style="stop-color:#FF682A"/>
			</linearGradient>
			<path style="fill:url(#SVGID_00000091008719916172586740000004820370891053269942_);" d="M1719,2249.9c0,7.4,0.2,13,0.4,15.4
				h-9.5c-0.6-2.9-0.9-7-0.9-8.9c-3.1,8.5-10,10.5-16.6,10.5c-14.4,0-20-12.3-20-28.4v-1.8c0-21.7,12.5-30.9,30.6-30.9
				c1.9,0,3.4,0,5.9,0v-18.4c0-10.2-2-17-11.3-17c-9.3,0-12,7-12,16.2v3.5h-9.9v-3.4c0-13.9,5.6-25.4,22.3-25.4
				c16.5,0,21.1,11.4,21.1,25.4V2249.9z M1709.1,2214.3c-1.5,0-4.4,0-6.1,0c-13.2,0-20.7,5.8-20.7,22v1.8c0,10.5,3,19.5,12.2,19.5
				c11.3,0,14.7-9.5,14.7-25.9V2214.3z"/>
			
				<linearGradient id="SVGID_00000085216847578658718300000012534574183758068875_" gradientUnits="userSpaceOnUse" x1="918.4384" y1="2111.8071" x2="918.4384" y2="2240.1228">
				<stop  offset="0" style="stop-color:#FF992A"/>
				<stop  offset="1" style="stop-color:#FF682A"/>
			</linearGradient>
			<path style="fill:url(#SVGID_00000085216847578658718300000012534574183758068875_);" d="M1744.9,2223.4l-1-70.4v-23.6h10.8v23.7
				l-0.9,70.3H1744.9z M1744,2265.3v-15.1h10.5v15.1H1744z"/>
		</g>
	</g>
	<g>
		<g>
			<path class="st26" d="M116.4,1957.1v94.2H74.7v-216.8h54.1c36.3,0,54.3,16,54.3,53.9v7.8c0,30.9-12.3,40.1-21.6,44.5
				c13.5,6.5,19.8,16.4,19.8,46.7c0,20.9-0.3,52.6,1.5,64h-40.3c-2.7-9.8-2.5-38-2.5-65.7c0-24.4-2.8-28.5-18.7-28.5H116.4z
				 M116.5,1924.2h5.2c13.9,0,19.6-4.4,19.6-24.6v-10.5c0-14.5-2.9-21.8-18.3-21.8h-6.5V1924.2z"/>
			<path class="st26" d="M286.4,1834.5v216.8h-41.6v-216.8H286.4z"/>
			<path class="st26" d="M351.5,1834.5h55.6c36,0,53.8,19,53.8,57.4v13.2c0,38-14.3,60.9-55.5,60.9h-12.2v85.2h-41.7V1834.5z
				 M393.3,1932.3h6.8c15.8,0,19.2-8.9,19.2-26.9v-15c0-14-3.3-23-17.2-23h-8.7V1932.3z"/>
			<path class="st26" d="M604.4,1955.6h-44.7v59.1h52.4l-5,36.7h-89.1v-216.8h88.8v36.9h-47.1v47.5h44.7V1955.6z"/>
			<path class="st26" d="M856.3,1892.5v100.6c0,43-20.2,61.5-58.1,61.5c-36,0-54.5-18.9-54.5-61v-102.1c0-41.9,23-60.1,56.4-60.1
				C833.7,1831.3,856.3,1849.3,856.3,1892.5z M785.9,1887.8v110.8c0,13.4,4.6,20.4,13.9,20.4c9.7,0,14.1-6.3,14.1-20.6v-110.9
				c0-13.5-3.7-20.5-14.2-20.5C790.8,1867.1,785.9,1873.5,785.9,1887.8z"/>
			<path class="st26" d="M959.3,1957.1v94.2h-41.6v-216.8h54.1c36.3,0,54.3,16,54.3,53.9v7.8c0,30.9-12.3,40.1-21.6,44.5
				c13.5,6.5,19.8,16.4,19.8,46.7c0,20.9-0.3,52.6,1.5,64h-40.3c-2.7-9.8-2.5-38-2.5-65.7c0-24.4-2.8-28.5-18.7-28.5H959.3z
				 M959.5,1924.2h5.2c13.9,0,19.6-4.4,19.6-24.6v-10.5c0-14.5-2.9-21.8-18.3-21.8h-6.5V1924.2z"/>
			<path class="st26" d="M1129.3,1834.5v216.8h-41.6v-216.8H1129.3z"/>
			<path class="st26" d="M1301.8,2051.3h-31.3c-1-3.8-1.6-11.5-1.9-16c-6.9,15.2-20.8,19.3-34.2,19.3c-33.7,0-43.2-25.1-43.2-60.5
				v-102c0-33.2,13.8-60.8,55.1-60.8c49.9,0,54.9,36.3,54.9,58.2v9.8h-42v-11.9c0-10.5-1.3-20.2-12.9-20.2c-9.5,0-13.1,7-13.1,21.1
				v111.1c0,14.8,4.8,20.2,13.1,20.2c10.1,0,13.6-7.9,13.6-25.7v-31.1h-14.3v-35.2h56.2V2051.3z"/>
			<path class="st26" d="M1407.4,1834.5v216.8h-41.6v-216.8H1407.4z"/>
			<path class="st26" d="M1472.6,2051.3v-216.8h46.1c6.9,26.5,28.6,124.6,30.3,134.1h1c-2.3-28.8-3.8-68.3-3.8-98.5v-35.6h38.7
				v216.8h-46.6c-4.5-20.6-28.2-132.8-29.6-139.7h-1.1c1.6,25.5,2.9,68.6,2.9,102.7v37H1472.6z"/>
			<path class="st26" d="M1682.4,1984.5v15c0,14.3,3.5,20.9,13,20.9c9.6,0,11.9-9.8,11.9-20c0-20.5-3.8-26.4-26-44.9
				c-24.4-20.7-37-32.9-37-64.9c0-31,10.3-59.5,51.3-59.5c43.6,0,50,29.7,50,54.5v12.5h-39.4v-13c0-13.2-2.2-19.7-10.4-19.7
				c-7.7,0-10.2,6.6-10.2,18.9c0,13.1,2.4,19.5,20.3,33.5c31.9,25,43.3,39.1,43.3,74.8c0,33.9-11.6,61.9-54.7,61.9
				c-41.4,0-53.2-24.9-53.2-57.1v-13H1682.4z"/>
		</g>
	</g>
	<g>
		<g>
			
				<linearGradient id="SVGID_00000158731759115866372540000000672526672305842101_" gradientUnits="userSpaceOnUse" x1="1332.2415" y1="920.5826" x2="1332.2415" y2="2008.645">
				<stop  offset="0" style="stop-color:#29E26A"/>
				<stop  offset="0.1537" style="stop-color:#28D369"/>
				<stop  offset="0.4478" style="stop-color:#26AD67"/>
				<stop  offset="0.8489" style="stop-color:#226F64"/>
				<stop  offset="1" style="stop-color:#215663"/>
			</linearGradient>
			<path style="fill:url(#SVGID_00000158731759115866372540000000672526672305842101_);" d="M1251.5,1412.2
				c11.1-0.2,22.2-0.5,33.3-0.8l19.2-0.6l12.6-0.7c4.7-0.2,9.5-0.8,14.5-1.6c19.7-2.8,39.3-9.7,57.3-19.7c36-20.6,63.1-54,77.3-88.3
				c14-34.7,19.3-68.2,17.9-101.1c-1-32.1-8.7-60.3-17.9-87c-18.7-53.4-43.4-100.8-75.9-145.6c-5.6-7.7-14.1-11.6-22.9-12.2
				c22.4,47.7,133.9,299.9,24,376.9c-25.1,17.6-65.6,26.4-120.8,26.4c-6.2,0-12.9-0.4-19.6-0.7c-0.2-9.2-0.4-18-0.5-26.5
				c59.2,2.2,102.7-4.9,125.7-21c81.5-57.1,5.9-263.1-33.4-345.1c-6.2,7-9,16.4-7.4,25.4l0.3,1.7c8.7,49.3,18.5,99.2,23.8,145.7
				c2.5,23.3,3.9,45.9,4.4,65.3c-0.1,18.4-2.2,36.9-8.4,49.6c-5.9,12.9-14.5,20.5-24.4,23.4c-5,1.6-10.4,2-16.1,2.5l-30.7,0.1
				c-11.6,0-23.3,0.1-34.9,0.2c-0.2-7.6-0.4-14.7-0.5-20.2c-1-46.9-3.3-93.8-5.1-140.7c-1.9-46.9-3.4-93.8-6.8-140.7
				c-7.1-93.8-17.2-187.6-39.7-281.4c-2.9-12-8.6-22.1-15.9-30c9,130.2,45.1,686.6,22.3,942.4c16.2,8,33.6,16.2,52.4,24.5
				C1254.3,1568.8,1252.8,1485.6,1251.5,1412.2z"/>
			
				<linearGradient id="SVGID_00000149383348184461542540000000000165317289511341_" gradientUnits="userSpaceOnUse" x1="1146.6361" y1="920.5832" x2="1146.6361" y2="2008.6499">
				<stop  offset="0" style="stop-color:#29E26A"/>
				<stop  offset="0.1537" style="stop-color:#28D369"/>
				<stop  offset="0.4478" style="stop-color:#26AD67"/>
				<stop  offset="0.8489" style="stop-color:#226F64"/>
				<stop  offset="1" style="stop-color:#215663"/>
			</linearGradient>
			<path style="fill:url(#SVGID_00000149383348184461542540000000000165317289511341_);" d="M1177.5,1595.2
				c21.9-272.8-18.6-862.9-24.5-945.8c-7-1.5-14.3-1.5-21.6,0.3c-6.4,71.5-28.3,613.7-20.3,910.1c7.5,4,14.9,8.1,22.3,12.1
				C1146.6,1579,1161.3,1586.9,1177.5,1595.2z"/>
			
				<linearGradient id="SVGID_00000089565232910434619970000011939962745505067931_" gradientUnits="userSpaceOnUse" x1="3304.7212" y1="920.5832" x2="3304.7212" y2="2008.6476" gradientTransform="matrix(-1 0 0 1 4372.7407 0)">
				<stop  offset="0" style="stop-color:#29E26A"/>
				<stop  offset="0.1537" style="stop-color:#28D369"/>
				<stop  offset="0.4478" style="stop-color:#26AD67"/>
				<stop  offset="0.8489" style="stop-color:#226F64"/>
				<stop  offset="1" style="stop-color:#215663"/>
			</linearGradient>
			<path style="fill:url(#SVGID_00000089565232910434619970000011939962745505067931_);" d="M1088.7,1029.9
				c6.1-216.9,10.4-317,15-363.5c-7.2,8.1-12.5,18.1-15.2,29.2c-22.4,93.8-32.6,187.6-39.7,281.4c-3.4,46.9-4.9,93.8-6.8,140.7
				c-1.7,46.9-4.1,93.8-5.1,140.7c-2.6,87-4.2,174-4.8,261c17.7,8.5,35,17.2,51.8,26.1C1080.3,1381.1,1085,1160.3,1088.7,1029.9z"/>
			
				<linearGradient id="SVGID_00000041272692747062314450000009195473034912572066_" gradientUnits="userSpaceOnUse" x1="525.9929" y1="756.9371" x2="525.9929" y2="1933.481">
				<stop  offset="0" style="stop-color:#29E26A"/>
				<stop  offset="0.1537" style="stop-color:#28D369"/>
				<stop  offset="0.4478" style="stop-color:#26AD67"/>
				<stop  offset="0.8489" style="stop-color:#226F64"/>
				<stop  offset="1" style="stop-color:#215663"/>
			</linearGradient>
			<path style="fill:url(#SVGID_00000041272692747062314450000009195473034912572066_);" d="M702.3,1436.7
				c-6.1-370.7,29.2-908.9,38.6-1043.6c-11.8,10.8-21,25.7-25.3,43.7c-29.4,122.9-42.7,245.8-52,368.7
				c-4.5,61.4-6.4,122.9-8.9,184.3c-2.3,61.5-5.4,122.9-6.6,184.4c-0.2,7.8-0.5,17-0.8,26.7c-24.7-0.3-49.3-0.5-74-0.5l-40.2-0.1
				c-7.5-0.6-14.6-1.2-21.1-3.3c-13.1-3.8-24.3-13.7-32-30.7c-8.1-16.6-10.9-40.9-11-65c0.6-25.4,2.4-55.1,5.7-85.5
				c7-61,19.9-126.4,31.2-191l0.4-2.2c2.2-12.8-2.2-25.9-11.8-35.3c-31.4,67.7-164.1,373.6-44,457.7c33.8,23.6,99.4,33.2,189.4,27.4
				l1.7,26.5c-17.7,1.1-34.5,1.7-50.4,1.7c-71.4,0-123.7-11.3-155.9-33.9c-138.6-97.1,1.4-418.7,35.2-490.8
				c-13.6-1.2-27.5,4.4-36.2,16.2c-42.7,58.7-75,120.8-99.5,190.8c-12,35-22.1,72-23.4,114.1c-1.8,43.1,5.1,87.1,23.4,132.5
				c18.7,44.8,54.2,88.7,101.3,115.7c23.5,13.1,49.2,22.2,75,25.8c6.5,1.1,12.9,1.8,19,2.1l16.5,0.9l25.2,0.7
				c23.7,0.8,47.4,1.3,71.2,1.7c-0.5,19.8-0.9,40.1-1.3,60.5c13.2-0.7,26.4-1.2,39.7-1.2C688.6,1436,695.4,1436.4,702.3,1436.7z"/>
			
				<linearGradient id="SVGID_00000018940326282418966430000018423526463271651263_" gradientUnits="userSpaceOnUse" x1="781.3053" y1="756.937" x2="781.3053" y2="1933.4791">
				<stop  offset="0" style="stop-color:#29E26A"/>
				<stop  offset="0.1537" style="stop-color:#28D369"/>
				<stop  offset="0.4478" style="stop-color:#26AD67"/>
				<stop  offset="0.8489" style="stop-color:#226F64"/>
				<stop  offset="1" style="stop-color:#215663"/>
			</linearGradient>
			<path style="fill:url(#SVGID_00000018940326282418966430000018423526463271651263_);" d="M806,377.6c-12.7-4.1-25.4-3.6-37.4-0.2
				c-6.9,96.7-46.4,672.9-39.7,1060.8c37.9,2.7,72.7,7.5,105.2,13.9C838.1,1035.1,812.3,418.7,806,377.6z"/>
			
				<linearGradient id="SVGID_00000098899347132268892700000016949823615178575807_" gradientUnits="userSpaceOnUse" x1="881.8532" y1="756.9361" x2="881.8532" y2="1933.4794">
				<stop  offset="0" style="stop-color:#29E26A"/>
				<stop  offset="0.1537" style="stop-color:#28D369"/>
				<stop  offset="0.4478" style="stop-color:#26AD67"/>
				<stop  offset="0.8489" style="stop-color:#226F64"/>
				<stop  offset="1" style="stop-color:#215663"/>
			</linearGradient>
			<path style="fill:url(#SVGID_00000098899347132268892700000016949823615178575807_);" d="M924.7,1174.2
				c-1.3-61.4-4.4-122.9-6.6-184.4c-2.5-61.4-4.4-122.9-8.9-184.3c-9.3-122.9-22.6-245.8-52-368.7c-4-16.5-12.6-30.9-24.1-42
				c6.1,51.2,12.2,176.4,20.5,485.2c3.9,145.9,8.8,378.8,6.8,577.8c24.7,5.8,47.9,12.5,70.1,20
				C929.6,1376.6,927.8,1275.4,924.7,1174.2z"/>
			
				<linearGradient id="SVGID_00000038405777878946979430000015065569386592025004_" gradientUnits="userSpaceOnUse" x1="3406.0515" y1="1506.8849" x2="3406.0515" y2="1782.6781" gradientTransform="matrix(-1 0 0 1 4918.4077 0)">
				<stop  offset="0" style="stop-color:#FF992A"/>
				<stop  offset="1" style="stop-color:#FF682A"/>
			</linearGradient>
			<path style="fill:url(#SVGID_00000038405777878946979430000015065569386592025004_);" d="M1721.9,1733.3
				c-66-150.6-242.2-252.1-419.1-240.3v159.5C1594.2,1774.8,1721.9,1733.3,1721.9,1733.3z"/>
		</g>
		<g>
			
				<linearGradient id="SVGID_00000034057099052160668910000004367091922353205410_" gradientUnits="userSpaceOnUse" x1="46.7245" y1="811.092" x2="1794.8685" y2="811.092">
				<stop  offset="0" style="stop-color:#FF992A"/>
				<stop  offset="1" style="stop-color:#FF682A"/>
			</linearGradient>
			<path style="fill:url(#SVGID_00000034057099052160668910000004367091922353205410_);" d="M128.5,951
				c0-436.9,355.4-792.3,792.3-792.3c436.9,0,792.3,355.4,792.3,792.3c0,195.8-71.6,374.9-189.8,513.3c26.1,10.6,51.2,23.1,75,37.6
				c122.7-150.5,196.6-342.1,196.6-550.9c0-482-392.1-874.1-874.1-874.1S46.7,469,46.7,951c0,229.4,89.1,438.2,234.2,594.2
				c22-16.1,45.7-30.8,70.7-44C213.7,1358.6,128.5,1164.7,128.5,951z"/>
		</g>
		
			<linearGradient id="SVGID_00000087412442756341064460000006495969862989484965_" gradientUnits="userSpaceOnUse" x1="828.2555" y1="1504.4819" x2="828.2555" y2="1794.7229">
			<stop  offset="0" style="stop-color:#FFD552"/>
			<stop  offset="1" style="stop-color:#FF992A"/>
		</linearGradient>
		<path style="fill:url(#SVGID_00000087412442756341064460000006495969862989484965_);" d="M1461.5,1749.9
			c-357.1-31.8-404.1-252.1-780.1-261c-227.7,0-420.4,109.1-486.4,259.6L1461.5,1749.9z"/>
	</g>
</g>
</svg>
